/* XPM */
static char * census_view_xpm[] = {
"16 16 10 1",
" 	c None",
".	c #000000",
"+	c #FFFFFF",
"@	c #83A67F",
"#	c #FCFCFC",
"$	c #FBFBFB",
"%	c #F8F8F8",
"&	c #887FA3",
"*	c #7590AE",
"=	c #FDFDFD",
"................",
".++++++++++++++.",
".++++++++++++++.",
".++++++++++++++.",
".+@@@######$%++.",
".+@@@+&&&++++++.",
".+#@++&&&+***++.",
".@@@@@+&++***++.",
".+=@+&&&&&+*+++.",
".+@@@##&$*****+.",
".@+++@&&&++*+++.",
".++++&+++&***++.",
".++++++++*+++*+.",
".++++++++++++++.",
".++++++++++++++.",
"................"};
