/* XPM */
static char * default_cell_xpm[] = {
"24 24 127 2",
"   c None",
".  c #000000",
"+  c #D3D3D3",
"@  c #F6F6F6",
"#  c #FFFFFF",
"$  c #F9F9F9",
"%  c #DADADA",
"&  c #585858",
"*  c #C7C7C7",
"=  c #D1D1D1",
"-  c #D6D6D6",
";  c #FEFEFE",
">  c #FDFDFD",
",  c #C0C0C0",
"'  c #E1E1E1",
")  c #F0F0F0",
"!  c #9B9B9B",
"~  c #FCFCFB",
"{  c #FBFBFB",
"]  c #AFAFAE",
"^  c #E9E9E9",
"/  c #DFDFDF",
"(  c #8F8F8F",
"_  c #FAFAF9",
":  c #F9F9F8",
"<  c #A4A4A3",
"[  c #F4F4F4",
"}  c #CFCFCF",
"|  c #A2A2A2",
"1  c #F8F8F7",
"2  c #F8F7F6",
"3  c #9E9E9E",
"4  c #F7F6F5",
"5  c #F6F6F4",
"6  c #F4F3F2",
"7  c #DEDDDC",
"8  c #D3D2D0",
"9  c #B7B7B5",
"0  c #9F9E9D",
"a  c #706F6F",
"b  c #65625A",
"c  c #F5F4F3",
"d  c #F2F2F0",
"e  c #E4E4E2",
"f  c #DAD9D7",
"g  c #D8D8D6",
"h  c #CDCCCA",
"i  c #AFAEAC",
"j  c #88847B",
"k  c #F3F3F1",
"l  c #EFEFED",
"m  c #EEEDEB",
"n  c #EDECEA",
"o  c #E9E8E6",
"p  c #D5D4D3",
"q  c #C4C3C2",
"r  c #8F8A81",
"s  c #F6F5F4",
"t  c #F5F5F3",
"u  c #F1F1EF",
"v  c #F1F0EE",
"w  c #ECEBE9",
"x  c #EAE9E7",
"y  c #E5E4E2",
"z  c #E4E3E0",
"A  c #D2D1CE",
"B  c #8D887E",
"C  c #F3F2F1",
"D  c #F0F0EE",
"E  c #F0EFED",
"F  c #EFEEEC",
"G  c #E8E7E5",
"H  c #E5E4E1",
"I  c #E2E1DE",
"J  c #E1DFDC",
"K  c #979288",
"L  c #A49E93",
"M  c #887FA3",
"N  c #E8E7E4",
"O  c #E7E6E3",
"P  c #E3E2DF",
"Q  c #E2E0DD",
"R  c #E1E0DC",
"S  c #E0DFDB",
"T  c #A19C90",
"U  c #EDEDEB",
"V  c #9189AA",
"W  c #EBEAE8",
"X  c #E9E8E5",
"Y  c #E6E4E1",
"Z  c #E3E2DE",
"`  c #DFDEDA",
" . c #DEDDD9",
".. c #DDDCD8",
"+. c #A19B90",
"@. c #E7E5E2",
"#. c #E4E3DF",
"$. c #DCDBD7",
"%. c #E5E4E0",
"&. c #E2E1DD",
"*. c #DBD9D5",
"=. c #D9D7D3",
"-. c #9F998D",
";. c #E4E2DF",
">. c #DDDBD7",
",. c #DCDAD6",
"'. c #D8D6D2",
"). c #9E988D",
"!. c #EDEDED",
"~. c #E1E0DD",
"{. c #E0DEDA",
"]. c #D8D6D1",
"^. c #D7D5D1",
"/. c #9D978B",
"(. c #DEDCD8",
"_. c #D7D6D1",
":. c #D5D3CE",
"<. c #9B958A",
"[. c #999891",
"}. c #A39E92",
"|. c #A39D92",
"1. c #A39D91",
"2. c #A29C90",
"3. c #A19B8F",
"4. c #9D978C",
"5. c #9B968A",
"6. c #676359",
"                                                ",
"      . . . . . . . . . . . . .                 ",
"    . + @ # # # # # # # # $ % & .               ",
"    . @ # # # # # # # # # # * = - .             ",
"    . # # # # # # # ; # ; > , ' ) ! .           ",
"    . # # # # # ; > ~ > ~ { ] ^ # / ( .         ",
"    . # # # ; > ~ { _ { _ : < ) # [ } | .       ",
"    . # ; > ~ { _ : 1 : 1 2 3 . . . . . . .     ",
"    . # ~ { _ : 1 2 4 2 4 5 6 7 8 9 0 a b .     ",
"    . # _ : 1 2 4 5 c 5 c 6 d e f g h i j .     ",
"    . # 1 2 4 5 c 6 k 6 k d l m n o p q r .     ",
"    . # s t 6 6 k d u d u v m w x y z A B .     ",
"    . # 6 C d D l v E v E F w G H z I J K .     ",
"    . # 6 C d D l v E v E F w G H z I J L .     ",
"    . # D M M M m n n n n w N O P Q R S T .     ",
"    . # U M M V w W X W X X H Y Z `  ...+..     ",
"    . # W o M G N N O N O @.#.Z S  ...$.+..     ",
"    . # M M M M M Y %.Y %.#.&.S  .$.*.=.-..     ",
"    . $ z P M ;.#.&.Z &.Z R R  .>.,.=.'.)..     ",
"    . !.~.M M M &.S R S R ` {.>.,.=.].^./..     ",
"    . = M {.`  .M  .{. .{.(.(.,.,.'._.:.<..     ",
"    . [.}.L |.1.|.T 2.T 2.3.+.-.-.4.4.5.6..     ",
"      . . . . . . . . . . . . . . . . . .       ",
"                                                "};
