/* XPM */
static char * delete_row_xpm[] = {
"24 24 45 1",
" 	c None",
".	c #000000",
"+	c #D7D7D7",
"@	c #C9C9C9",
"#	c #FFFFFF",
"$	c #DDDDDD",
"%	c #CCCCCC",
"&	c #C4C4C4",
"*	c #FAFAFA",
"=	c #D5D5D5",
"-	c #F2F2F2",
";	c #DF421E",
">	c #D0A89F",
",	c #CAA299",
"'	c #F3CBC1",
")	c #D7AFA6",
"!	c #EDC5BB",
"~	c #E68973",
"{	c #FCF1EF",
"]	c #FDFBFA",
"^	c #FDF6F4",
"/	c #F9DFDA",
"(	c #FBECE9",
"_	c #B5B5B5",
":	c #ACACAC",
"<	c #D2D2D2",
"[	c #A9A9A9",
"}	c #CBCBCB",
"|	c #C3C3C3",
"1	c #D4D4D4",
"2	c #FBEAE7",
"3	c #FDF9F8",
"4	c #C7C7C7",
"5	c #E68873",
"6	c #B0B0B0",
"7	c #B1B1B1",
"8	c #ADADAD",
"9	c #E9E9E9",
"0	c #EBEBEB",
"a	c #ECECEC",
"b	c #EAEAEA",
"c	c #B8B8B8",
"d	c #D1D1D1",
"e	c #CECECE",
"f	c #B4B4B4",
"                        ",
" .....................  ",
" .++++@#####$#######@.  ",
" .+%%%&*****=-------@.  ",
" .+%%%&*****=-------@.  ",
" .+%%%&*****=-------@.  ",
" .;;;;;;;;;;;;;;;;;;;.  ",
" .;>>>,''''')!!!!!!!;.  ",
" .;>>>,''''')!!!!!!!;.  ",
" .;>>>,''''')!!!!!!!;.  ",
" .;>>>,''''')!!!!!!!;.  ",
" .;;;;;;;;;;;;;;;;;;;.  ",
" .+%%%&*****=-------@.  ",
" .+%%%&*****=~;;;;;~@.  ",
" .+%%%&*****=;{];^/;@.  ",
" .+%%%&*****=;]#(#^;@.  ",
" ._:::&<<<<<%;;{#(;;[.  ",
" .+}}}|*****1;^#2#3;4.  ",
" .+}}}|*****1;{3;^/;4.  ",
" .+}}}|*****15;;;;;5@.  ",
" .@678_90abacd<e<%%%f.  ",
" .....................  ",
"                        ",
"                        "};
