/* XPM */
static char * edit_case_xpm[] = {
"24 24 128 2",
"  	c None",
". 	c #343434",
"+ 	c #2D2D2D",
"@ 	c #292929",
"# 	c #262626",
"$ 	c #2E2E2E",
"% 	c #303030",
"& 	c #737373",
"* 	c #A1A1A1",
"= 	c #B4B4B4",
"- 	c #B2B2B2",
"; 	c #9D9D9D",
"> 	c #676767",
", 	c #202020",
"' 	c #1C1C1C",
") 	c #272727",
"! 	c #616161",
"~ 	c #CACACA",
"{ 	c #CFCFCF",
"] 	c #D0D0D0",
"^ 	c #CECECE",
"/ 	c #C9C9C9",
"( 	c #C1C1C1",
"_ 	c #A7A7A7",
": 	c #4C4C4C",
"< 	c #131313",
"[ 	c #222222",
"} 	c #757575",
"| 	c #D3D3D3",
"1 	c #DBDBDB",
"2 	c #E7E7E7",
"3 	c #EFEFEF",
"4 	c #F3F3F3",
"5 	c #F1F1F1",
"6 	c #E5E5E5",
"7 	c #D2D2D2",
"8 	c #BCBCBC",
"9 	c #5E5E5E",
"0 	c #101010",
"a 	c #212121",
"b 	c #5B5B5B",
"c 	c #CCCCCC",
"d 	c #D7D7D7",
"e 	c #F5F5F5",
"f 	c #FAFAFA",
"g 	c #FBFBFB",
"h 	c #F8F8F8",
"i 	c #F0F0F0",
"j 	c #E1E1E1",
"k 	c #C2C2C2",
"l 	c #434343",
"m 	c #0F0F0F",
"n 	c #1F1F1F",
"o 	c #B9B9B9",
"p 	c #83A67F",
"q 	c #FDFDFD",
"r 	c #FCFCFC",
"s 	c #F2F2F2",
"t 	c #ECECEC",
"u 	c #E4E4E4",
"v 	c #ABABAB",
"w 	c #0E0E0E",
"x 	c #1B1B1B",
"y 	c #6D6D6D",
"z 	c #887FA3",
"A 	c #F9F9F9",
"B 	c #EEEEEE",
"C 	c #E6E6E6",
"D 	c #575757",
"E 	c #090909",
"F 	c #141414",
"G 	c #A8A8A8",
"H 	c #D8D8D8",
"I 	c #7590AE",
"J 	c #DCDCDC",
"K 	c #9B9B9B",
"L 	c #060606",
"M 	c #111111",
"N 	c #C5C5C5",
"O 	c #BFBFBF",
"P 	c #C6C6C6",
"Q 	c #E3E3E3",
"R 	c #F4F4F4",
"S 	c #EAEAEA",
"T 	c #E0E0E0",
"U 	c #BABABA",
"V 	c #050505",
"W 	c #0B0B0B",
"X 	c #A5A5A5",
"Y 	c #F6F6F6",
"Z 	c #D1D1D1",
"` 	c #939393",
" .	c #020202",
"..	c #0A0A0A",
"+.	c #5F5F5F",
"@.	c #EBEBEB",
"#.	c #EDEDED",
"$.	c #E9E9E9",
"%.	c #D4D4D4",
"&.	c #000000",
"*.	c #E2E2E2",
"=.	c #CBCBCB",
"-.	c #3B3B3B",
";.	c #DADADA",
">.	c #D5D5D5",
",.	c #C8C8C8",
"'.	c #515151",
").	c #C7C7C7",
"!.	c #CDCDCD",
"~.	c #B8B8B8",
"{.	c #454545",
"].	c #030303",
"^.	c #313131",
"/.	c #999999",
"(.	c #BBBBBB",
"_.	c #BDBDBD",
":.	c #B6B6B6",
"<.	c #909090",
"[.	c #2B2B2B",
"}.	c #010101",
"|.	c #414141",
"1.	c #7A7A7A",
"2.	c #9A9A9A",
"3.	c #777777",
"4.	c #3C3C3C",
"5.	c #686868",
"6.	c #797979",
"7.	c #3A3A3A",
"              . + @ # # #                       ",
"          $ % & * = - ; > , '                   ",
"        ) ! = ~ { ] ^ / ( _ : <                 ",
"      [ } ~ | 1 2 3 4 5 6 7 8 9 0               ",
"    a b c d 6 e f g f h e i j k l m             ",
"    n o p p p g q q r g h s t u v w             ",
"  x y 7 p p p q z z z r A e B C 1 D E           ",
"  F G H B p A r z z z g I I I C J K L           ",
"  M N p p p p p q z r f I I I 6 1 O L           ",
"  w P Q t p e z z z z z R I S T d U V           ",
"  W X j p p p R Y z e I I I I I Z `  .          ",
"  ..+.p j C @.p z z z #.$.I 1 %.~ : &.          ",
"    ..= H J *.z C C 2 z I I I =.*  .            ",
"    L -.c 7 %.;.1 ;.1 I >.] ,.I $ &.            ",
"      V '.k ).=.c !.=.=.,.k ~.{.&.              ",
"        ].^./.(._.8 8 8 :.<.[.&.&.&.            ",
"          }.].|.1.2.2.3.4.&.&.  &.&.&.&.        ",
"              &.&.&.&.&.&.        , , &.&.      ",
"                                  &.5.. &.&.    ",
"                                    &.6.7.&.&.  ",
"                                      &.5.n &.  ",
"                                        &.&.    ",
"                                                ",
"                                                "};
