/* XPM */
static char * fixed_width_xpm[] = {
"24 24 44 1",
" 	c None",
".	c #000000",
"+	c #FFFFFF",
"@	c #ABABAB",
"#	c #DEDEDE",
"$	c #E0E0E0",
"%	c #969696",
"&	c #E1E1E1",
"*	c #E2E2E2",
"=	c #E3E3E3",
"-	c #E4E4E4",
";	c #E5E5E5",
">	c #E6E6E6",
",	c #E7E7E7",
"'	c #E8E8E8",
")	c #D4D4D4",
"!	c #E9E9E9",
"~	c #EAEAEA",
"{	c #D6D6D6",
"]	c #989898",
"^	c #999999",
"/	c #9A9A9A",
"(	c #9C9C9C",
"_	c #909090",
":	c #D2D2D2",
"<	c #BFBFBF",
"[	c #979797",
"}	c #9B9B9B",
"|	c #9E9E9E",
"1	c #9F9F9F",
"2	c #939393",
"3	c #9D9D9D",
"4	c #A0A0A0",
"5	c #A1A1A1",
"6	c #A2A2A2",
"7	c #A4A4A4",
"8	c #EBEBEB",
"9	c #EDEDED",
"0	c #A3A3A3",
"a	c #A6A6A6",
"b	c #A7A7A7",
"c	c #D8D8D8",
"d	c #D9D9D9",
"e	c #929292",
"                        ",
"                        ",
"......................  ",
".+++@+++++++++++++++#.  ",
".+$$%$$$$$$&*==-;>,').  ",
".+$$%$$$$$&*=--;>'!~{.  ",
".@%%%%%%%%]]^%%//(%%_.  ",
".+$$%::::(::::(::::(<.  ",
".+$$%::::(::::(::::(<.  ",
".+$$%::::(::::(::::(<.  ",
".+$$[]]^^(}((^(||1^(2.  ",
".+&$^::::(::::(::::(<.  ",
".+-$^::::(::::(::::(<.  ",
".+;$^::::(::::(::::(<.  ",
".+>$}((33(4453(6673([.  ",
".+'$(::::(::::(::::(<.  ",
".+!~3::::(::::(::::(<.  ",
".+~8|::::(::::(::::(<.  ",
".+8914455(0775(aab5(/.  ",
".!cde<<<<e<<<<e<<<<e<.  ",
"......................  ",
"                        ",
"                        ",
"                        "};
