/* XPM */
static char * illustration_view_xpm[] = {
"16 16 8 1",
" 	c None",
".	c #000000",
"+	c #FFFFFF",
"@	c #FCFCFC",
"#	c #FBFBFB",
"$	c #F8F8F8",
"%	c #887FA3",
"&	c #FDFDFD",
"................",
".++++++++++++++.",
".++++++++++++++.",
".++++++++++++++.",
".++++@@@@@@#$++.",
".+++++%%%++++++.",
".+@+++%%%++++++.",
".++++++%+++++++.",
".+&++%%%%%+++++.",
".++++@@%#++++++.",
".+++++%%%++++++.",
".++++%+++%+++++.",
".++++++++++++++.",
".++++++++++++++.",
".++++++++++++++.",
"................"};
