/* XPM */
static char * paste_case_xpm[] = {
"24 24 91 1",
" 	c None",
".	c #000000",
"+	c #B9B9B9",
"@	c #FEFEFE",
"#	c #F9F9F9",
"$	c #757575",
"%	c #F5F5E8",
"&	c #565651",
"*	c #FFFFFF",
"=	c #A0A0A0",
"-	c #939393",
";	c #7C7C7C",
">	c #C5C5BB",
",	c #CFC6A0",
"'	c #D7CEAA",
")	c #ADA689",
"!	c #4B483C",
"~	c #6D6D6D",
"{	c #6C6C6C",
"]	c #A9A9A9",
"^	c #3D3A30",
"/	c #979178",
"(	c #C1B898",
"_	c #8A793D",
":	c #C3BB9A",
"<	c #AFA78A",
"[	c #444236",
"}	c #FAFAFA",
"|	c #EFEFEF",
"1	c #C7C7C7",
"2	c #D8D8D8",
"3	c #D2D2D2",
"4	c #7B7B7B",
"5	c #302E26",
"6	c #89846C",
"7	c #C4BC9A",
"8	c #847235",
"9	c #C5C5C5",
"0	c #A7A7A7",
"a	c #ADADAD",
"b	c #9A9A9A",
"c	c #9B9B9B",
"d	c #868686",
"e	c #424242",
"f	c #847033",
"g	c #C9C09E",
"h	c #464337",
"i	c #35332A",
"j	c #2D2B23",
"k	c #C6BE9D",
"l	c #826F33",
"m	c #7F7964",
"n	c #4C493C",
"o	c #171612",
"p	c #13120F",
"q	c #3E3B31",
"r	c #282210",
"s	c #474438",
"t	c #B3B3B3",
"u	c #D6D6D6",
"v	c #B7AE90",
"w	c #B1AA8C",
"x	c #37352B",
"y	c #151410",
"z	c #83A67F",
"A	c #FCFCFC",
"B	c #FBFBFB",
"C	c #F8F8F8",
"D	c #B9B293",
"E	c #11100D",
"F	c #887FA3",
"G	c #434035",
"H	c #7590AE",
"I	c #AAA48B",
"J	c #A5A086",
"K	c #A19A7F",
"L	c #312F26",
"M	c #FDFDFD",
"N	c #AFA88C",
"O	c #050403",
"P	c #12110E",
"Q	c #A9A489",
"R	c #A39E85",
"S	c #EBE7D0",
"T	c #D2C9A5",
"U	c #A29053",
"V	c #8E7C3D",
"W	c #88793B",
"X	c #806C2F",
"Y	c #78652B",
"Z	c #251F0C",
"       ....             ",
" ......+@#$......       ",
".%%%%%&*=-;&>%%%,.      ",
".%''')!*~{]^/(''_.      ",
".%::<[}|123456<78.      ",
".%''!900abcde!)'f.      ",
".%g:6hijjjjj56<kl.      ",
".%'''////////(''l.      ",
".%g::::mnopppp^qr....   ",
".%'''''st***********u.  ",
".%vwwwwx*************.  ",
".%'''''y*zzzAAAAAABC*.  ",
".%DwwwwE*zzz*FFF*****.  ",
".%'''''G*Az**FFF*HHH*.  ",
".%IJKKKLzzzzz*F**HHH*.  ",
".%'''''G*Mz*FFFFF*H**.  ",
".%NJKKKO*zzzAAFBHHHHH.  ",
".%'''''Pz***zFFF**H**.  ",
".%QRKKKL****F***FHHH*.  ",
".S'''''G********H***H.  ",
".TUVWXYZ*************.  ",
" .......u***********u.  ",
"        .............   ",
"                        "};
