/* XPM */
static char * tier_view_xpm[] = {
"16 16 4 1",
"   c #000000",
".  c #FFFFFF",
"+  c #808080",
"@  c #808000",
"                ",
" .............. ",
" ...++++++++... ",
" ...+......+ .. ",
" ...+...... @ . ",
" ...+..... @@ . ",
" ...+.... @@ .. ",
" ...+... @@ ... ",
" ...+.. @@ +... ",
" ...+.. @ .+... ",
" ...+.+  ..+... ",
" ...+. +...+... ",
" ...+......+... ",
" ...++++++++... ",
" .............. ",
"                "};
