/* XPM */
static char * print_options_xpm[] = {
"24 24 147 2",
"  	c None",
". 	c #000000",
"+ 	c #74716E",
"@ 	c #C9C4BD",
"# 	c #DFDAD2",
"$ 	c #F4EFE5",
"% 	c #F2ECE1",
"& 	c #FFFFFF",
"* 	c #4C4B48",
"= 	c #EEE5D4",
"- 	c #ECE2CF",
"; 	c #EADFC9",
"> 	c #F9F9F9",
", 	c #E2D2B1",
"' 	c #F4F4F4",
") 	c #EEEEEE",
"! 	c #C7B99C",
"~ 	c #E9E9E9",
"{ 	c #787878",
"] 	c #877E69",
"^ 	c #9A8F78",
"/ 	c #DEDEDE",
"( 	c #D9D9D9",
"_ 	c #AFA389",
": 	c #111111",
"< 	c #181818",
"[ 	c #1A1A1A",
"} 	c #2C2C2C",
"| 	c #CACACA",
"1 	c #A7A7A7",
"2 	c #A5A5A5",
"3 	c #A4A4A4",
"4 	c #A0A0A0",
"5 	c #A1A1A1",
"6 	c #9E9E9E",
"7 	c #87847C",
"8 	c #EAE8E3",
"9 	c #8D8982",
"0 	c #53524C",
"a 	c #807D74",
"b 	c #AAA9A5",
"c 	c #BAB5AB",
"d 	c #F3F3F3",
"e 	c #C3C1BD",
"f 	c #8B8B89",
"g 	c #E6E5E1",
"h 	c #F9F9F8",
"i 	c #FAFAF9",
"j 	c #F9F9F7",
"k 	c #F7F6F5",
"l 	c #F7F7F4",
"m 	c #F6F5F4",
"n 	c #F2F1EE",
"o 	c #F0EFEC",
"p 	c #E5E5E4",
"q 	c #9F9F9F",
"r 	c #DFDED9",
"s 	c #A4A3A1",
"t 	c #6C6B6A",
"u 	c #F5F4F3",
"v 	c #BEBEBE",
"w 	c #D5D5D5",
"x 	c #B6B6B6",
"y 	c #D3D3D3",
"z 	c #D4D4D3",
"A 	c #B7B7B7",
"B 	c #D4D4D4",
"C 	c #A9A9A9",
"D 	c #B5B5B5",
"E 	c #CDCDCB",
"F 	c #B5B5B4",
"G 	c #DCDAD3",
"H 	c #6B6B6A",
"I 	c #999896",
"J 	c #918F87",
"K 	c #999895",
"L 	c #E6E4E1",
"M 	c #F0EEEC",
"N 	c #FAFAFA",
"O 	c #FAF9F9",
"P 	c #F9F8F7",
"Q 	c #F8F7F6",
"R 	c #F8F8F7",
"S 	c #F4F3F1",
"T 	c #F2F1EF",
"U 	c #565655",
"V 	c #858482",
"W 	c #9C9B99",
"X 	c #6B6A68",
"Y 	c #585858",
"Z 	c #5E5C57",
"` 	c #524F4B",
" .	c #4A4845",
"..	c #4B4A46",
"+.	c #4B4946",
"@.	c #4A4844",
"#.	c #494743",
"$.	c #484642",
"%.	c #474541",
"&.	c #464440",
"*.	c #514F4B",
"=.	c #53514E",
"-.	c #7B7A77",
";.	c #797771",
">.	c #949391",
",.	c #989694",
"'.	c #868480",
").	c #6E6C66",
"!.	c #706D67",
"~.	c #5C5955",
"{.	c #67645F",
"].	c #5B5954",
"^.	c #585651",
"/.	c #5D5B56",
"(.	c #595652",
"_.	c #53504C",
":.	c #575450",
"<.	c #595752",
"[.	c #5C5956",
"}.	c #5B5956",
"|.	c #61615E",
"1.	c #696861",
"2.	c #77756F",
"3.	c #7E7B77",
"4.	c #979690",
"5.	c #96938D",
"6.	c #807E77",
"7.	c #7D7A74",
"8.	c #787770",
"9.	c #716F6A",
"0.	c #6E6C67",
"a.	c #595753",
"b.	c #63615C",
"c.	c #686661",
"d.	c #6F6E68",
"e.	c #6D6C66",
"f.	c #72716B",
"g.	c #76746F",
"h.	c #6A6963",
"i.	c #8B8880",
"j.	c #B2AFA8",
"k.	c #B6B3AD",
"l.	c #BFBDB6",
"m.	c #BDBBB4",
"n.	c #B0AEA6",
"o.	c #ABA8A2",
"p.	c #9C9991",
"                        . . . . . . . . .       ",
"                      . + @ # $ % . & & .       ",
"                      * = - - - ; . & > .       ",
"                    . ; . , , , , . ' ) .       ",
"                  . ; . ! . , ! ! . ~ { .       ",
"                . ; . ] . ! . ^ . . / ( .       ",
"              . ; . . . ] . _ . . . . .         ",
"              . .     : . ] . <                 ",
"                        [ . }                   ",
"                                                ",
"                                                ",
"      . & . | 1 2 3 2 2 3 4 4 5 5 6 . 7 .       ",
"    . & 8 9 0 . . . . . . . . . . a 7 b c .     ",
"  . & & d & & & & & & & & & & & & & & & & 8 .   ",
"  . e f g h i h j k l i i m n n o p 8 q r c .   ",
"  . s t u v w x y x z A B C y D E F G H I J .   ",
"  . K H L M k h N O h P Q R R S S S T U V J .   ",
"  . W X Y Z `  ...+.+.+.@.#.$.%.#.&.*.=.-.;..   ",
"  . >.,.'.).!.~.{.].^.]./.(._.:.<.[.}.|.1.2..   ",
"  . 3.4.5.J 6.7.8.2.9.2.9.0.a.b.c.d.e.f.g.h..   ",
"    . . . . . . . . . . . . . . . . . . . .     ",
"    . i.j.k.l.l.l.l.l.m.n.j.o.n.p.p.p.a a .     ",
"      . . . . . . . . . . . . . . . . . .       ",
"                                                "};
