/* XPM */
static char * print_case_xpm[] = {
"24 24 122 2",
"  	c None",
". 	c #000000",
"+ 	c #83A67F",
"@ 	c #FCFCFC",
"# 	c #FBFBFB",
"$ 	c #F8F8F8",
"% 	c #FFFFFF",
"& 	c #887FA3",
"* 	c #7590AE",
"= 	c #FDFDFD",
"- 	c #87847C",
"; 	c #EAE8E3",
"> 	c #8D8982",
", 	c #53524C",
"' 	c #807D74",
") 	c #AAA9A5",
"! 	c #BAB5AB",
"~ 	c #F3F3F3",
"{ 	c #C3C1BD",
"] 	c #8B8B89",
"^ 	c #E6E5E1",
"/ 	c #F9F9F8",
"( 	c #FAFAF9",
"_ 	c #F9F9F7",
": 	c #F7F6F5",
"< 	c #F7F7F4",
"[ 	c #F6F5F4",
"} 	c #F2F1EE",
"| 	c #F0EFEC",
"1 	c #E5E5E4",
"2 	c #9F9F9F",
"3 	c #DFDED9",
"4 	c #A4A3A1",
"5 	c #6C6B6A",
"6 	c #F5F4F3",
"7 	c #BEBEBE",
"8 	c #D5D5D5",
"9 	c #B6B6B6",
"0 	c #D3D3D3",
"a 	c #D4D4D3",
"b 	c #B7B7B7",
"c 	c #D4D4D4",
"d 	c #A9A9A9",
"e 	c #B5B5B5",
"f 	c #CDCDCB",
"g 	c #B5B5B4",
"h 	c #DCDAD3",
"i 	c #6B6B6A",
"j 	c #999896",
"k 	c #918F87",
"l 	c #999895",
"m 	c #E6E4E1",
"n 	c #F0EEEC",
"o 	c #FAFAFA",
"p 	c #FAF9F9",
"q 	c #F9F8F7",
"r 	c #F8F7F6",
"s 	c #F8F8F7",
"t 	c #F4F3F1",
"u 	c #F2F1EF",
"v 	c #565655",
"w 	c #858482",
"x 	c #9C9B99",
"y 	c #6B6A68",
"z 	c #585858",
"A 	c #5E5C57",
"B 	c #524F4B",
"C 	c #4A4845",
"D 	c #4B4A46",
"E 	c #4B4946",
"F 	c #4A4844",
"G 	c #494743",
"H 	c #484642",
"I 	c #474541",
"J 	c #464440",
"K 	c #514F4B",
"L 	c #53514E",
"M 	c #7B7A77",
"N 	c #797771",
"O 	c #949391",
"P 	c #989694",
"Q 	c #868480",
"R 	c #6E6C66",
"S 	c #706D67",
"T 	c #5C5955",
"U 	c #67645F",
"V 	c #5B5954",
"W 	c #585651",
"X 	c #5D5B56",
"Y 	c #595652",
"Z 	c #53504C",
"` 	c #575450",
" .	c #595752",
"..	c #5C5956",
"+.	c #5B5956",
"@.	c #61615E",
"#.	c #696861",
"$.	c #77756F",
"%.	c #7E7B77",
"&.	c #979690",
"*.	c #96938D",
"=.	c #807E77",
"-.	c #7D7A74",
";.	c #787770",
">.	c #716F6A",
",.	c #6E6C67",
"'.	c #595753",
").	c #63615C",
"!.	c #686661",
"~.	c #6F6E68",
"{.	c #6D6C66",
"].	c #72716B",
"^.	c #76746F",
"/.	c #6A6963",
"(.	c #8B8880",
"_.	c #B2AFA8",
":.	c #B6B3AD",
"<.	c #BFBDB6",
"[.	c #BDBBB4",
"}.	c #B0AEA6",
"|.	c #ABA8A2",
"1.	c #9C9991",
"                                                ",
"            . . . . . . . . . . . .             ",
"          . + + + @ @ @ @ @ @ # $ % .           ",
"          . + + + % & & & % % % % % .           ",
"          . @ + % % & & & % * * * % .           ",
"          . + + + + % & % % * * * % .           ",
"          . = + % & & & & & % * % % .           ",
"          . + + + @ @ & # * * * * * .           ",
"          . % % % + & & & % % * % % .           ",
"          . % % % & % % % & * * * % .           ",
"        . . % % % % % % % * % % % * . .         ",
"      . % . % % % % % % % % % % % % . - .       ",
"    . % ; > , . . . . . . . . . . ' - ) ! .     ",
"  . % % ~ % % % % % % % % % % % % % % % % ; .   ",
"  . { ] ^ / ( / _ : < ( ( [ } } | 1 ; 2 3 ! .   ",
"  . 4 5 6 7 8 9 0 9 a b c d 0 e f g h i j k .   ",
"  . l i m n : / o p / q r s s t t t u v w k .   ",
"  . x y z A B C D E E E F G H I G J K L M N .   ",
"  . O P Q R S T U V W V X Y Z `  ...+.@.#.$..   ",
"  . %.&.*.k =.-.;.$.>.$.>.,.'.).!.~.{.].^./..   ",
"    . . . . . . . . . . . . . . . . . . . .     ",
"    . (._.:.<.<.<.<.<.[.}._.|.}.1.1.1.' ' .     ",
"      . . . . . . . . . . . . . . . . . .       ",
"                                                "};
