/* XPM */
static char * print_case_xpm[] = {
"24 24 120 2",
"  	c None",
". 	c #000000",
"+ 	c #FFFFFF",
"@ 	c #FCFCFC",
"# 	c #FBFBFB",
"$ 	c #F8F8F8",
"% 	c #887FA3",
"& 	c #FDFDFD",
"* 	c #87847C",
"= 	c #EAE8E3",
"- 	c #8D8982",
"; 	c #53524C",
"> 	c #807D74",
", 	c #AAA9A5",
"' 	c #BAB5AB",
") 	c #F3F3F3",
"! 	c #C3C1BD",
"~ 	c #8B8B89",
"{ 	c #E6E5E1",
"] 	c #F9F9F8",
"^ 	c #FAFAF9",
"/ 	c #F9F9F7",
"( 	c #F7F6F5",
"_ 	c #F7F7F4",
": 	c #F6F5F4",
"< 	c #F2F1EE",
"[ 	c #F0EFEC",
"} 	c #E5E5E4",
"| 	c #9F9F9F",
"1 	c #DFDED9",
"2 	c #A4A3A1",
"3 	c #6C6B6A",
"4 	c #F5F4F3",
"5 	c #BEBEBE",
"6 	c #D5D5D5",
"7 	c #B6B6B6",
"8 	c #D3D3D3",
"9 	c #D4D4D3",
"0 	c #B7B7B7",
"a 	c #D4D4D4",
"b 	c #A9A9A9",
"c 	c #B5B5B5",
"d 	c #CDCDCB",
"e 	c #B5B5B4",
"f 	c #DCDAD3",
"g 	c #6B6B6A",
"h 	c #999896",
"i 	c #918F87",
"j 	c #999895",
"k 	c #E6E4E1",
"l 	c #F0EEEC",
"m 	c #FAFAFA",
"n 	c #FAF9F9",
"o 	c #F9F8F7",
"p 	c #F8F7F6",
"q 	c #F8F8F7",
"r 	c #F4F3F1",
"s 	c #F2F1EF",
"t 	c #565655",
"u 	c #858482",
"v 	c #9C9B99",
"w 	c #6B6A68",
"x 	c #585858",
"y 	c #5E5C57",
"z 	c #524F4B",
"A 	c #4A4845",
"B 	c #4B4A46",
"C 	c #4B4946",
"D 	c #4A4844",
"E 	c #494743",
"F 	c #484642",
"G 	c #474541",
"H 	c #464440",
"I 	c #514F4B",
"J 	c #53514E",
"K 	c #7B7A77",
"L 	c #797771",
"M 	c #949391",
"N 	c #989694",
"O 	c #868480",
"P 	c #6E6C66",
"Q 	c #706D67",
"R 	c #5C5955",
"S 	c #67645F",
"T 	c #5B5954",
"U 	c #585651",
"V 	c #5D5B56",
"W 	c #595652",
"X 	c #53504C",
"Y 	c #575450",
"Z 	c #595752",
"` 	c #5C5956",
" .	c #5B5956",
"..	c #61615E",
"+.	c #696861",
"@.	c #77756F",
"#.	c #7E7B77",
"$.	c #979690",
"%.	c #96938D",
"&.	c #807E77",
"*.	c #7D7A74",
"=.	c #787770",
"-.	c #716F6A",
";.	c #6E6C67",
">.	c #595753",
",.	c #63615C",
"'.	c #686661",
").	c #6F6E68",
"!.	c #6D6C66",
"~.	c #72716B",
"{.	c #76746F",
"].	c #6A6963",
"^.	c #8B8880",
"/.	c #B2AFA8",
"(.	c #B6B3AD",
"_.	c #BFBDB6",
":.	c #BDBBB4",
"<.	c #B0AEA6",
"[.	c #ABA8A2",
"}.	c #9C9991",
"                                                ",
"            . . . . . . . . . . . .             ",
"          . + + @ @ @ @ @ @ @ # $ + .           ",
"          . + + + + % % % + + + + + .           ",
"          . @ + + + % % % + + + + + .           ",
"          . & + + + + % + + + + + + .           ",
"          . & + + % % % % % + + + + .           ",
"          . + + + @ @ % # @ @ + + + .           ",
"          . + + + + % % % + + + + + .           ",
"          . + + + % + + + % + + + + .           ",
"        . . + + + + + + + + + + + + . .         ",
"      . + . + + + + + + + + + + + + . * .       ",
"    . + = - ; . . . . . . . . . . > * , ' .     ",
"  . + + ) + + + + + + + + + + + + + + + + = .   ",
"  . ! ~ { ] ^ ] / ( _ ^ ^ : < < [ } = | 1 ' .   ",
"  . 2 3 4 5 6 7 8 7 9 0 a b 8 c d e f g h i .   ",
"  . j g k l ( ] m n ] o p q q r r r s t u i .   ",
"  . v w x y z A B C C C D E F G E H I J K L .   ",
"  . M N O P Q R S T U T V W X Y Z `  ...+.@..   ",
"  . #.$.%.i &.*.=.@.-.@.-.;.>.,.'.).!.~.{.]..   ",
"    . . . . . . . . . . . . . . . . . . . .     ",
"    . ^./.(._._._._._.:.<./.[.<.}.}.}.> > .     ",
"      . . . . . . . . . . . . . . . . . .       ",
"                                                "};
