/* XPM */
static char const* round_upward_selected_xpm[] = {
"16 16 60 1",
" 	c None",
"!	c #003C74",
"#	c #A1BEED",
"$	c #96B1DD",
"%	c #8BA4CD",
"&	c #A0BDEB",
"'	c #20252E",
"(	c #0A0C0F",
")	c #7B8FB0",
"*	c #9EB9E5",
"+	c #A1BDEC",
",	c #404B5D",
"-	c #1D2027",
".	c #1C2027",
"0	c #8CA1C6",
"1	c #9EBAE7",
"2	c #60718D",
"3	c black",
"4	c #566277",
"5	c #6E7B93",
"6	c #090A0C",
"7	c #39404E",
"8	c #98B0D9",
"9	c #9FBCE9",
":	c #7588AA",
";	c #6F809C",
"<	c #72829D",
"=	c #606D84",
">	c #7484A0",
"?	c #69778F",
"@	c #8BA0C2",
"A	c #9FBBE9",
"B	c #859BBF",
"C	c #0A0B0E",
"D	c #616F87",
"E	c #94A9CF",
"F	c #99B1DA",
"G	c #A0BDEC",
"H	c #1F252E",
"I	c #14171C",
"J	c #2F343F",
"K	c #7F91B1",
"L	c #9BB5E0",
"M	c #A0BCEA",
"N	c #404B5E",
"O	c #72819C",
"P	c #8291AE",
"Q	c #131519",
"R	c #1C2026",
"S	c #9FBAE7",
"T	c #96ADD4",
"U	c #90A4C7",
"V	c #94AAD0",
"W	c #96ACD3",
"X	c #91A5C8",
"Y	c #94AACF",
"Z	c #9DB8E3",
"[	c #9DB7E3",
"]	c #9EB9E6",
"^	c #9CB6E1",
"!!!!!!!!!!!!!!!!",
"!##############!",
"!##############!",
"!######$%&#####!",
"!#####$'()*+###!",
"!#####,(-.01###!",
"!####23456789##!",
"!####:;<=>?@*##!",
"!####ABC3DEF1##!",
"!####GHIJ6KLM##!",
"!####N3OPQR0S##!",
"!####STUVWXYZ##!",
"!####M[L]S^^A##!",
"!##############!",
"!##############!",
"!!!!!!!!!!!!!!!!"};
