/* XPM */
static const unsigned char * rounding_view_to_nearest_selected_xpm[] = {
"16 16 50 1",
" 	c None",
"!	c #003C74",
"#	c #A1BEED",
"$	c #96B1DD",
"%	c #2A323E",
"&	c black",
"'	c #29303B",
"(	c #92AAD2",
")	c #9FBBE9",
"*	c #536179",
"+	c #9DB8E4",
",	c #A0BDEB",
"-	c #404B5D",
".	c #0A0C0F",
"0	c #4D576A",
"1	c #090B0D",
"2	c #1D2128",
"3	c #98B0D9",
"4	c #8AA1C9",
"5	c #586479",
"6	c #95ACD2",
"7	c #9EBAE7",
"8	c #15181E",
"9	c #3A4251",
":	c #8B9CBB",
";	c #5D697F",
"<	c #303641",
"=	c #323A47",
">	c #7987A3",
"?	c #93A8CD",
"@	c #4C5567",
"A	c #8FA1C3",
"B	c #96ADD5",
"C	c #58657B",
"D	c #090A0D",
"E	c #535E70",
"F	c #8D9EBE",
"G	c #97AFD7",
"H	c #A0BCEA",
"I	c #9BB5E0",
"J	c #92A6CB",
"K	c #95ABD1",
"L	c #9CB6E2",
"M	c #94A9CF",
"N	c #8EA0C1",
"O	c #94AACF",
"P	c #9DB7E3",
"Q	c #9FBBE8",
"R	c #9DB8E5",
"S	c #9AB4DE",
"!!!!!!!!!!!!!!!!",
"!##############!",
"!##############!",
"!##############!",
"!##############!",
"!##############!",
"!###$%&'()#&*+,!",
"!###-.01234&567!",
"!###89:;&<=&>?7!",
"!###&@ABCDDEFGH!",
"!###IJK+LMNNOP#!",
"!###QL+,,RSSR,#!",
"!##############!",
"!##############!",
"!##############!",
"!!!!!!!!!!!!!!!!"};