/* XPM */
static const unsigned char * rounding_view_not_at_all_selected_xpm[] = {
"16 16 30 1",
" 	c None",
"!	c #003C74",
"#	c #A1BEED",
"$	c #8CA5CD",
"%	c #758AAC",
"&	c #7589AB",
"'	c #7588AA",
"(	c #9FBBE9",
")	c #A0BDEC",
"*	c #55647C",
"+	c black",
",	c #98AFD7",
"-	c #9EB9E6",
".	c #8AA1C8",
"0	c #6F809D",
"1	c #69778F",
"2	c #67738B",
"3	c #91A5C9",
"4	c #9CB6E1",
"5	c #8AA2CA",
"6	c #7183A1",
"7	c #6D7D98",
"8	c #6B7A95",
"9	c #96ADD4",
":	c #9DB8E4",
";	c #9FBCE9",
"<	c #9BB4DF",
"=	c #94AAD0",
">	c #A0BCEA",
"?	c #9FBAE8",
"!!!!!!!!!!!!!!!!",
"!##############!",
"!##############!",
"!##############!",
"!##############!",
"!###$%&'''''()#!",
"!###*+++++++,-#!",
"!###.012222234#!",
"!###567888889:#!",
"!###*+++++++9:#!",
"!###.012222234#!",
"!###;<9=====,-#!",
"!####>(?????()#!",
"!##############!",
"!##############!",
"!!!!!!!!!!!!!!!!"};