/* XPM */
static char const* round_downward_hover_xpm[] = {
"16 16 60 1",
" 	c None",
"!	c #82BB91",
"#	c #D1F6DF",
"$	c #C3E6D0",
"%	c #29302C",
"&	c #1A1F1C",
"'	c #B9D8C6",
"(	c #A3BFAE",
")	c black",
"*	c #4F5C54",
"+	c #C8E9D6",
",	c #CEF3DD",
"-	c #ADCBBA",
".	c #0C0E0D",
"0	c #3A4340",
"1	c #191D1B",
"2	c #252A28",
"3	c #AEC6BE",
"4	c #BBD8CA",
"5	c #CCEFDA",
"6	c #7C8F87",
"7	c #0B0C0C",
"8	c #8C9E9B",
"9	c #ABC2BB",
":	c #C0DFCF",
";	c #97B2A2",
"<	c #9EB8AA",
"=	c #778981",
">	c #82928F",
"?	c #798885",
"@	c #879B92",
"A	c #C9EBD7",
"B	c #D0F5DE",
"C	c #515F57",
"D	c #0D0F0E",
"E	c #92A79E",
"F	c #6B7A74",
"G	c #6E7F77",
"H	c #C2E1D1",
"I	c #CDF1DB",
"J	c #BDDCCA",
"K	c #222725",
"L	c #0C0D0D",
"M	c #454F4C",
"N	c #ABC3BC",
"O	c #BBD9CB",
"P	c #CCF0DB",
"Q	c #CEF2DC",
"R	c #99B1A5",
"S	c #0B0D0C",
"T	c #202423",
"U	c #96A9A6",
"V	c #AEC7BE",
"W	c #C4E4D2",
"X	c #D0F4DE",
"Y	c #CBEEDA",
"Z	c #A1BAAF",
"[	c #9EB2AD",
"]	c #BFDECE",
"^	c #CAEDD9",
"!!!!!!!!!!!!!!!!",
"!##############!",
"!##############!",
"!##############!",
"!##############!",
"!###$%&'()*+,##!",
"!####-.012345##!",
"!####56)789:,##!",
"!###$;<=>?@AB##!",
"!####CDEF)GHI##!",
"!####J2KLMNOP##!",
"!####QRSTUVWX##!",
"!#####YZ[N]Q###!",
"!#####B^HWP####!",
"!#######XB#####!",
"!!!!!!!!!!!!!!!!"};
