/* XPM */
static const unsigned char * rounding_view_downward_xpm[] = {
"16 16 58 1",
" 	c None",
"!	c #ECE9D8",
"#	c #DCD9CA",
"$	c #2E2E2B",
"%	c #1E1D1C",
"&	c #CFCCC0",
"'	c #B7B6AA",
"(	c black",
")	c #585752",
"*	c #E0DED0",
"+	c #E9E6D6",
",	c #C3C0B4",
"-	c #0D0D0D",
".	c #40403E",
"0	c #1B1B1A",
"1	c #282827",
"2	c #BFBEBA",
"3	c #CFCEC5",
"4	c #E5E3D4",
"5	c #8A8983",
"6	c #0C0C0C",
"7	c #989998",
"8	c #BBBAB7",
"9	c #D6D4C9",
":	c #ABA99D",
";	c #B1AFA5",
"<	c #83837F",
"=	c #8D8E8D",
">	c #838383",
"?	c #95948E",
"@	c #E2DFD1",
"A	c #EBE8D7",
"B	c #5C5A54",
"C	c #0E0E0D",
"D	c #A1A09A",
"E	c #767671",
"F	c #797974",
"G	c #D8D7CB",
"H	c #E7E4D5",
"I	c #D4D1C4",
"J	c #252525",
"K	c #0D0D0C",
"L	c #4C4C4A",
"M	c #BBBBB7",
"N	c #D0CFC5",
"O	c #E6E3D4",
"P	c #E8E5D5",
"Q	c #AAA9A0",
"R	c #232323",
"S	c #A2A3A2",
"T	c #BFBFBA",
"U	c #DBD9CC",
"V	c #EAE7D7",
"W	c #E5E2D3",
"X	c #B3B2AA",
"Y	c #ACACA9",
"Z	c #D5D3C9",
"[	c #E3E1D2",
"!!!!!!!!!!!!!!!!",
"!!!!!!!!!!!!!!!!",
"!!!!!!!!!!!!!!!!",
"!!!!!!!!!!!!!!!!",
"!!!!!!!!!!!!!!!!",
"!!!!#$%&'()*+!!!",
"!!!!!,-.01234!!!",
"!!!!!45(6789+!!!",
"!!!!#:;<=>?@A!!!",
"!!!!!BCDE(FGH!!!",
"!!!!!I1JKLMNO!!!",
"!!!!!PQ6RSTUV!!!",
"!!!!!!WXYMZP!!!!",
"!!!!!!A[GUO!!!!!",
"!!!!!!!!VA!!!!!!",
"!!!!!!!!!!!!!!!!"};