/* XPM */
static char const* round_to_nearest_hover_xpm[] = {
"16 16 51 1",
" 	c None",
"!	c #82BB91",
"#	c #D1F6DF",
"$	c #C3E6D0",
"%	c #37403B",
"&	c black",
"'	c #343C38",
"(	c #B9D8C7",
")	c #CDF1DC",
"*	c #6A7C72",
"+	c #C9EBD7",
",	c #CFF4DD",
"-	c #526158",
".	c #0D0F0E",
"0	c #5D6A65",
"1	c #0B0D0C",
"2	c #232826",
"3	c #BFDDCE",
"4	c #B1D0BE",
"5	c #6A7974",
"6	c #B9D5C8",
"7	c #CBEEDA",
"8	c #1B1F1D",
"9	c #47514D",
":	c #A4B9B4",
";	c #6F7D79",
"<	c #39413E",
"=	c #3F4844",
">	c #8EA09D",
"?	c #B4CEC3",
"@	c #5A6663",
"A	c #AAC2BA",
"B	c #BBD8CA",
"C	c #6B7C75",
"D	c #0B0C0C",
"E	c #626F6C",
"F	c #A6BCB7",
"G	c #BDDBCC",
"H	c #CEF2DC",
"I	c #C5E5D3",
"J	c #B2CBC1",
"K	c #B7D3C7",
"L	c #C7E8D5",
"M	c #B5D0C5",
"N	c #A9BFB9",
"O	c #B6D1C5",
"P	c #C8EAD6",
"Q	c #CDF0DB",
"R	c #D0F4DE",
"S	c #C9ECD8",
"T	c #C3E3D2",
"!!!!!!!!!!!!!!!!",
"!##############!",
"!##############!",
"!##############!",
"!##############!",
"!##############!",
"!###$%&'()#&*+,!",
"!###-.01234&567!",
"!###89:;&<=&>?7!",
"!###&@ABCDDEFGH!",
"!###IJK+LMNNOP#!",
"!###QL+,RSTTSR#!",
"!##############!",
"!##############!",
"!##############!",
"!!!!!!!!!!!!!!!!"};
