/* XPM */
static char const* round_upward_hover_xpm[] = {
"16 16 59 1",
" 	c None",
"!	c #82BB91",
"#	c #D1F6DF",
"$	c #C3E6D0",
"%	c #B4D4C0",
"&	c #D0F4DE",
"'	c #29302C",
"(	c #0D0F0E",
")	c #9BB4A7",
"*	c #CAEDD9",
"+	c #D0F5DE",
",	c #526158",
"-	c #222726",
".	c #222625",
"0	c #AEC9BD",
"1	c #CBEEDA",
"2	c #7D9285",
"3	c black",
"4	c #687772",
"5	c #81918E",
"6	c #0B0C0C",
"7	c #444E4B",
"8	c #BFDDCE",
"9	c #CEF2DC",
":	c #96B0A1",
";	c #899F95",
"<	c #899C96",
"=	c #73837E",
">	c #8CA099",
"?	c #7D8F89",
"@	c #ABC5B9",
"A	c #CAECD8",
"B	c #CDF1DB",
"C	c #A8C3B5",
"D	c #0C0E0D",
"E	c #778881",
"F	c #B6D1C5",
"G	c #BFDECE",
"H	c #282F2B",
"I	c #191C1B",
"J	c #373E3C",
"K	c #9BB2A8",
"L	c #C5E6D4",
"M	c #CEF3DD",
"N	c #899B96",
"O	c #97AAA7",
"P	c #161818",
"Q	c #CCEFDA",
"R	c #BBD8CA",
"S	c #AEC6BE",
"T	c #B7D2C6",
"U	c #B9D6C8",
"V	c #AFC8BF",
"W	c #C8EAD7",
"X	c #C8E9D6",
"Y	c #C5E5D3",
"Z	c #CBEED9",
"[	c #C6E7D4",
"]	c #C6E7D5",
"!!!!!!!!!!!!!!!!",
"!##############!",
"!##############!",
"!######$%&#####!",
"!#####$'()*+###!",
"!#####,(-.01###!",
"!####23456789##!",
"!####:;<=>?@A##!",
"!####BCD3EFG1##!",
"!####+HIJ6KLM##!",
"!####,3NOP.0Q##!",
"!####QRSTUVFW##!",
"!####MXYZQ[]B##!",
"!##############!",
"!##############!",
"!!!!!!!!!!!!!!!!"};
