/* XPM */
static const unsigned char * rounding_view_upward_xpm[] = {
"16 16 61 1",
" 	c None",
"!	c #ECE9D8",
"#	c #DCD9CA",
"$	c #CCC9BA",
"%	c #EAE7D7",
"&	c #2E2D2A",
"'	c #0F0E0E",
"(	c #ADACA2",
")	c #E3E1D2",
"*	c #EBE8D7",
"+	c #5D5C55",
",	c #0E0E0D",
"-	c #252525",
".	c #252524",
"0	c #C1BFB7",
"1	c #E5E2D3",
"2	c #8C8B81",
"3	c black",
"4	c #737370",
"5	c #8B8C8B",
"6	c #0C0C0C",
"7	c #4B4A49",
"8	c #D5D3C8",
"9	c #E8E5D5",
":	c #A9A69B",
";	c #999890",
"<	c #969692",
"=	c #7F7F7B",
">	c #9A9A96",
"?	c #898986",
"@	c #BDBCB4",
"A	c #E3E0D2",
"B	c #E7E4D5",
"C	c #BBBAB0",
"D	c #0D0D0D",
"E	c #83837E",
"F	c #C9C8C0",
"G	c #D5D3C9",
"H	c #2D2D2A",
"I	c #1B1B1A",
"J	c #3C3C3B",
"K	c #ABAAA5",
"L	c #DDDBCE",
"M	c #E9E6D6",
"N	c #5D5C56",
"O	c #969592",
"P	c #A3A4A3",
"Q	c #171817",
"R	c #242424",
"S	c #E5E3D4",
"T	c #CFCEC5",
"U	c #BFBEBA",
"V	c #CAC9C1",
"W	c #CDCCC3",
"X	c #C0C0BB",
"Y	c #E1DED0",
"Z	c #E0DED0",
"[	c #DCDACD",
"]	c #E4E2D3",
"^	c #DEDBCE",
"_	c #DEDCCF",
"!!!!!!!!!!!!!!!!",
"!!!!!!!!!!!!!!!!",
"!!!!!!!!!!!!!!!!",
"!!!!!!!#$%!!!!!!",
"!!!!!!#&'()*!!!!",
"!!!!!!+,-.01!!!!",
"!!!!!23456789!!!",
"!!!!!:;<=>?@A!!!",
"!!!!!BCD3EFG1!!!",
"!!!!!*HIJ6KLM!!!",
"!!!!!N3OPQR0S!!!",
"!!!!!STUVWXFY!!!",
"!!!!!MZ[]S^_B!!!",
"!!!!!!!!!!!!!!!!",
"!!!!!!!!!!!!!!!!",
"!!!!!!!!!!!!!!!!"};