/* XPM */
static const unsigned char * rounding_view_not_at_all_hover_xpm[] = {
"16 16 32 1",
" 	c None",
"!	c #82BB91",
"#	c #D1F6DF",
"$	c #B5D5C1",
"%	c #97B2A2",
"&	c #96B1A1",
"'	c #96B0A1",
"(	c #CDF1DC",
")	c #D0F5DE",
"*	c #6E8175",
"+	c black",
",	c #BDDBCC",
"-	c #CBEDD9",
".	c #B1CFBD",
"0	c #8A9F95",
"1	c #7D8F89",
"2	c #798985",
"3	c #B0C9C0",
"4	c #C6E7D5",
"5	c #B2D1BF",
"6	c #8EA599",
"7	c #859990",
"8	c #83968E",
"9	c #BAD7C9",
":	c #C9EBD7",
";	c #6D8175",
"<	c #CEF2DC",
"=	c #C4E4D3",
">	c #B7D2C6",
"?	c #CEF3DD",
"@	c #CDF1DB",
"A	c #CCF0DB",
"!!!!!!!!!!!!!!!!",
"!##############!",
"!##############!",
"!##############!",
"!##############!",
"!###$%&'''''()#!",
"!###*+++++++,-#!",
"!###.012222234#!",
"!###567888889:#!",
"!###;+++++++9:#!",
"!###.012222234#!",
"!###<=9>>>>>,-#!",
"!####?@AAAAA()#!",
"!##############!",
"!##############!",
"!!!!!!!!!!!!!!!!"};