/* XPM */
static char const* round_not_at_all_xpm[] = {
"16 16 31 1",
" 	c None",
"!	c #ECE9D8",
"#	c #CDCABB",
"$	c #ABA99D",
"%	c #A9A79C",
"&	c #A9A69B",
"'	c #E7E5D5",
"(	c #EBE8D7",
")	c #7C7A72",
"*	c black",
"+	c #D2D1C7",
",	c #E4E1D2",
"-	c #C6C5B8",
".	c #999890",
"0	c #898986",
"1	c #848483",
"2	c #C2C1BB",
"3	c #DEDCCF",
"4	c #C8C6B9",
"5	c #9E9E95",
"6	c #93938D",
"7	c #908F8B",
"8	c #CECDC4",
"9	c #E2DFD1",
":	c #7B7A72",
";	c #E8E5D5",
"<	c #DBD9CD",
"=	c #CAC9C1",
">	c #E9E6D6",
"?	c #E7E4D5",
"@	c #E6E3D4",
"!!!!!!!!!!!!!!!!",
"!!!!!!!!!!!!!!!!",
"!!!!!!!!!!!!!!!!",
"!!!!!!!!!!!!!!!!",
"!!!!!!!!!!!!!!!!",
"!!!!#$%&&&&&'(!!",
"!!!!)*******+,!!",
"!!!!-.01111123!!",
"!!!!4567777789!!",
"!!!!:*******89!!",
"!!!!-.01111123!!",
"!!!!;<8=====+,!!",
"!!!!!>?@@@@@'(!!",
"!!!!!!!!!!!!!!!!",
"!!!!!!!!!!!!!!!!",
"!!!!!!!!!!!!!!!!"};
