/* XPM */
static char const* round_to_nearest_xpm[] = {
"16 16 50 1",
" 	c None",
"!	c #ECE9D8",
"#	c #DCD9CA",
"$	c #3E3D39",
"%	c black",
"&	c #3A3936",
"'	c #CFCDC1",
"(	c #E7E5D5",
")	c #76756E",
"*	c #E1DFD1",
"+	c #EAE7D6",
",	c #5D5C55",
"-	c #0E0E0D",
".	c #666663",
"0	c #0C0C0C",
"1	c #262625",
"2	c #D4D3C8",
"3	c #C7C5B8",
"4	c #747471",
"5	c #CDCCC3",
"6	c #E5E2D3",
"7	c #1E1E1C",
"8	c #4E4E4B",
"9	c #B2B2B1",
":	c #787977",
";	c #3E3E3D",
"<	c #454542",
"=	c #9A9B99",
">	c #C6C5BF",
"?	c #626261",
"@	c #BABAB6",
"A	c #D0CEC5",
"B	c #777672",
"C	c #6B6B6A",
"D	c #B5B5B3",
"E	c #D2D0C6",
"F	c #E8E5D5",
"G	c #DCDACD",
"H	c #C3C3BD",
"I	c #CBCAC2",
"J	c #E2DFD1",
"K	c #DEDCCF",
"L	c #C8C7C0",
"M	c #B8B8B5",
"N	c #C9C8C0",
"O	c #E0DED0",
"P	c #E6E4D4",
"Q	c #EAE7D7",
"R	c #E2E0D1",
"S	c #DAD8CC",
"!!!!!!!!!!!!!!!!",
"!!!!!!!!!!!!!!!!",
"!!!!!!!!!!!!!!!!",
"!!!!!!!!!!!!!!!!",
"!!!!!!!!!!!!!!!!",
"!!!!!!!!!!!!!!!!",
"!!!!#$%&'(!%)*+!",
"!!!!,-.0123%456!",
"!!!!789:%;<%=>6!",
"!!!!%?@AB00CDEF!",
"!!!!GHIJKLMMNO!!",
"!!!!PK*+QRSSRQ!!",
"!!!!!!!!!!!!!!!!",
"!!!!!!!!!!!!!!!!",
"!!!!!!!!!!!!!!!!",
"!!!!!!!!!!!!!!!!"};
