/* XPM */
static char * run_cell_xpm[] = {
"24 24 83 1",
" 	c None",
".	c #000000",
"+	c #E6E2E2",
"@	c #EEEEEA",
"#	c #EEEEEE",
"$	c #F2F2EE",
"%	c #EAEAE6",
"&	c #EAE6E6",
"*	c #E6E6E2",
"=	c #D6D6D2",
"-	c #D2CECA",
";	c #CAC6BF",
">	c #C6C2BE",
",	c #BEBAB2",
"'	c #B6B2AE",
")	c #AEAAA3",
"!	c #020202",
"~	c #DAD6CE",
"{	c #DEDAD6",
"]	c #DEDED6",
"^	c #DEDAD2",
"/	c #D6D2CA",
"(	c #D2CEC6",
"_	c #C2BAB2",
":	c #BAB6AE",
"<	c #B2AEA7",
"[	c #AAA297",
"}	c #A29A90",
"|	c #9A9A8E",
"1	c #DADAD2",
"2	c #AEA69E",
"3	c #928E8A",
"4	c #FFFFFF",
"5	c #1E221E",
"6	c #B2AEA2",
"7	c #8E8A7E",
"8	c #D2D2CB",
"9	c #AAA6A2",
"0	c #868279",
"a	c #CECAC2",
"b	c #ADA7C8",
"c	c #222222",
"d	c #A6A294",
"e	c #7E7A70",
"f	c #C6C2BA",
"g	c #222622",
"h	c #76726A",
"i	c #D6D6CD",
"j	c #B6B2A6",
"k	c #CACAC6",
"l	c #A29E95",
"m	c #BAB6B2",
"n	c #9A9284",
"o	c #726A62",
"p	c #8E867A",
"q	c #AAA69E",
"r	c #827E76",
"s	c #323A32",
"t	c #363E36",
"u	c #3E423E",
"v	c #424242",
"w	c #666662",
"x	c #7A766E",
"y	c #AEAA9A",
"z	c #B2AAA2",
"A	c #AAA69A",
"B	c #9A9689",
"C	c #726E62",
"D	c #6E6A5E",
"E	c #6A625A",
"F	c #666256",
"G	c #52504A",
"H	c #8E8E82",
"I	c #6A665E",
"J	c #6A665A",
"K	c #625E52",
"L	c #44413D",
"M	c #55554D",
"N	c #7A7A6F",
"O	c #827E7A",
"P	c #8A8A86",
"Q	c #8E8E8A",
"R	c #96928B",
"                        ",
"  ....................  ",
" .+@#@$$$$@%&*+=-;>,')! ",
" .@~~{]]]^^~/((;_:<[}|! ",
" .$1!!!!!!!!!!!!!!!!23! ",
" .$~!44444444444444567! ",
" .%8!44444444444444590! ",
" .%a!44444bbb444444cde! ",
" .+f!44444bbb444444g}h! ",
" .^_!444444b4444444!2e! ",
" .ij!4444bbbbb44444!6e! ",
" .82!444444b4444444!9h! ",
" .kl!44444bbb444444!dh! ",
" .mn!4444b444b44444!}o! ",
" .<p!44444444444444!po! ",
" .qr!stuuuvstuuuvuuvrw! ",
" .lxy)z)2Ad)z)2Ad2Adxw! ",
" .BCCCCoDEFCCoDEFDEFCG! ",
" .HwIJJFEKKJJFEKKEKKwL! ",
"  !MhNOPQRQNOPQRQQRQM.  ",
"   .!!!!!!!!!!!!!!!!.!  ",
"                        ",
"                        ",
"                        "};
