/* XPM */
static char * run_case_xpm[] = {
"24 24 85 1",
" 	c None",
".	c #000000",
"+	c #E6E2E2",
"@	c #EEEEEA",
"#	c #EEEEEE",
"$	c #F2F2EE",
"%	c #EAEAE6",
"&	c #EAE6E6",
"*	c #E6E6E2",
"=	c #D6D6D2",
"-	c #D2CECA",
";	c #CAC6BF",
">	c #C6C2BE",
",	c #BEBAB2",
"'	c #B6B2AE",
")	c #AEAAA3",
"!	c #020202",
"~	c #DAD6CE",
"{	c #DEDAD6",
"]	c #DEDED6",
"^	c #DEDAD2",
"/	c #D6D2CA",
"(	c #D2CEC6",
"_	c #C2BAB2",
":	c #BAB6AE",
"<	c #B2AEA7",
"[	c #AAA297",
"}	c #A29A90",
"|	c #9A9A8E",
"1	c #DADAD2",
"2	c #AEA69E",
"3	c #928E8A",
"4	c #FFFFFF",
"5	c #1E221E",
"6	c #B2AEA2",
"7	c #8E8A7E",
"8	c #D2D2CB",
"9	c #C5D2C8",
"0	c #AAA6A2",
"a	c #868279",
"b	c #CECAC2",
"c	c #ADA7C8",
"d	c #222222",
"e	c #A6A294",
"f	c #7E7A70",
"g	c #C6C2BA",
"h	c #9DB8D2",
"i	c #222622",
"j	c #76726A",
"k	c #D6D6CD",
"l	c #B6B2A6",
"m	c #CACAC6",
"n	c #A29E95",
"o	c #BAB6B2",
"p	c #9A9284",
"q	c #726A62",
"r	c #8E867A",
"s	c #AAA69E",
"t	c #827E76",
"u	c #323A32",
"v	c #363E36",
"w	c #3E423E",
"x	c #424242",
"y	c #666662",
"z	c #7A766E",
"A	c #AEAA9A",
"B	c #B2AAA2",
"C	c #AAA69A",
"D	c #9A9689",
"E	c #726E62",
"F	c #6E6A5E",
"G	c #6A625A",
"H	c #666256",
"I	c #52504A",
"J	c #8E8E82",
"K	c #6A665E",
"L	c #6A665A",
"M	c #625E52",
"N	c #44413D",
"O	c #55554D",
"P	c #7A7A6F",
"Q	c #827E7A",
"R	c #8A8A86",
"S	c #8E8E8A",
"T	c #96928B",
"                        ",
"  ....................  ",
" .+@#@$$$$@%&*+=-;>,')! ",
" .@~~{]]]^^~/((;_:<[}|! ",
" .$1!!!!!!!!!!!!!!!!23! ",
" .$~!44444444444444567! ",
" .%8!4999444444444450a! ",
" .%b!49994ccc444444def! ",
" .+g!44944ccc4hhh44i}j! ",
" .^_!999994c44hhh44!2f! ",
" .kl!4494ccccc4h444!6f! ",
" .82!499944c4hhhhh4!0j! ",
" .mn!94449ccc44h444!ej! ",
" .op!4444c444chhh44!}q! ",
" .<r!44444444h444h4!rq! ",
" .st!uvwwwxuvwwwxwwxty! ",
" .nzA)B)2Ce)B)2Ce2Cezy! ",
" .DEEEEqFGHEEqFGHFGHEI! ",
" .JyKLLHGMMLLHGMMGMMyN! ",
"  !OjPQRSTSPQRSTSSTSO.  ",
"   .!!!!!!!!!!!!!!!!.!  ",
"                        ",
"                        ",
"                        "};
