/* XPM */
static char * varying_width_xpm[] = {
"24 24 45 1",
" 	c None",
".	c #000000",
"+	c #FFFFFF",
"@	c #ABABAB",
"#	c #DEDEDE",
"$	c #E0E0E0",
"%	c #969696",
"&	c #E1E1E1",
"*	c #E2E2E2",
"=	c #E3E3E3",
"-	c #E4E4E4",
";	c #E5E5E5",
">	c #E6E6E6",
",	c #E7E7E7",
"'	c #E8E8E8",
")	c #D4D4D4",
"!	c #E9E9E9",
"~	c #EAEAEA",
"{	c #D6D6D6",
"]	c #979797",
"^	c #989898",
"/	c #999999",
"(	c #9A9A9A",
"_	c #9B9B9B",
":	c #9C9C9C",
"<	c #9D9D9D",
"[	c #909090",
"}	c #D2D2D2",
"|	c #BFBFBF",
"1	c #9F9F9F",
"2	c #A0A0A0",
"3	c #939393",
"4	c #9E9E9E",
"5	c #A1A1A1",
"6	c #A2A2A2",
"7	c #A4A4A4",
"8	c #A5A5A5",
"9	c #EBEBEB",
"0	c #EDEDED",
"a	c #A3A3A3",
"b	c #A7A7A7",
"c	c #A8A8A8",
"d	c #D8D8D8",
"e	c #D9D9D9",
"f	c #929292",
"                        ",
"                        ",
"......................  ",
".+++@+++++++++++++++#.  ",
".+$$%$$$$$$&*==-;>,').  ",
".+$$%$$$$$&*=--;>'!~{.  ",
".@%%%%%%]]^^/(%]_::<[.  ",
".+$$%}}:}}}}}}:}:}}}|.  ",
".+$$%}}:}}}}}}:}:}}}|.  ",
".+$$%}}:}}}}}}:}:}}}|.  ",
".+$$]^^:((_::<:(:1223.  ",
".+&$/}}:}}}}}}:}:}}}|.  ",
".+-$/}}:}}}}}}:}:}}}|.  ",
".+;$/}}:}}}}}}:}:}}}|.  ",
".+>$_:::442256:4:778].  ",
".+'$:}}:}}}}}}:}:}}}|.  ",
".+!~<}}:}}}}}}:}:}}}|.  ",
".+~94}}:}}}}}}:}:}}}|.  ",
".+90122:66a778:6:bcc(.  ",
".!def||f||||||f|f||||.  ",
"......................  ",
"                        ",
"                        ",
"                        "};
