/* XPM */
static char * write_spreadsheet_xpm[] = {
"24 24 50 1",
" 	c None",
".	c #000000",
"+	c #FFFFFF",
"@	c #ABABAB",
"#	c #DEDEDE",
"$	c #E0E0E0",
"%	c #969696",
"&	c #E1E1E1",
"*	c #E2E2E2",
"=	c #E3E3E3",
"-	c #E4E4E4",
";	c #E5E5E5",
">	c #E6E6E6",
",	c #E7E7E7",
"'	c #E8E8E8",
")	c #D4D4D4",
"!	c #E9E9E9",
"~	c #EAEAEA",
"{	c #D6D6D6",
"]	c #979797",
"^	c #989898",
"/	c #999999",
"(	c #9A9A9A",
"_	c #9B9B9B",
":	c #9C9C9C",
"<	c #9D9D9D",
"[	c #909090",
"}	c #D2D2D2",
"|	c #BFBFBF",
"1	c #83A67F",
"2	c #887FA3",
"3	c #7590AE",
"4	c #A0A0A0",
"5	c #939393",
"6	c #A4A4A4",
"7	c #A5A5A5",
"8	c #EBEBEB",
"9	c #9E9E9E",
"0	c #EDEDED",
"a	c #9F9F9F",
"b	c #A1A1A1",
"c	c #A2A2A2",
"d	c #A3A3A3",
"e	c #A6A6A6",
"f	c #A7A7A7",
"g	c #A8A8A8",
"h	c #D8D8D8",
"i	c #D9D9D9",
"j	c #929292",
"k	c #898989",
"                        ",
"                        ",
"......................  ",
".+++@+++++++++++++++#.  ",
".+$$%$$$$$$&*==-;>,').  ",
".+$$%$$$$$&*=--;>'!~{.  ",
".@%%%%%%%]^^/(((_::<[.  ",
".+$$%}}}}}}}}}]}}}}}|.  ",
".+$$%}111}}}}}]}}}}}|.  ",
".+$$%}111}222}]}}}}}|.  ",
".+$$]^]1]]222]333]445.  ",
".+&$/}1111}2}}333}}}|.  ",
".+-$/}}1}22222]3}}}}|.  ",
".+;$/}111}}2}33333}}|.  ",
".+>$_1]]]1222]]3]]67].  ",
".+'$:}}}}2}}}2333}}}|.  ",
".+!~<}}}}}}}}3]}}3}}|.  ",
".+~89}}}}}}}}}]}}}}}|.  ",
".+80a44bccd6677eefgg(.  ",
".!hij|||||||||k||||||.  ",
"......................  ",
"                        ",
"                        ",
"                        "};
